<svg width="40" height="40" viewBox="0 0 40 40" fill="none" xmlns="http://www.w3.org/2000/svg">
<mask id="mask0_13_609" style="mask-type:alpha" maskUnits="userSpaceOnUse" x="0" y="0" width="40" height="40">
<rect width="40" height="40" fill="#F8F0EC"/>
</mask>
<g mask="url(#mask0_13_609)">
<g filter="url(#filter0_i_13_609)">
<path d="M20 25C21.3889 25 22.5695 24.5139 23.5417 23.5416C24.5139 22.5694 25 21.3889 25 20C25 18.6111 24.5139 17.4305 23.5417 16.4583C22.5695 15.4861 21.3889 15 20 15C18.6112 15 17.4306 15.4861 16.4584 16.4583C15.4862 17.4305 15 18.6111 15 20C15 21.3889 15.4862 22.5694 16.4584 23.5416C17.4306 24.5139 18.6112 25 20 25ZM20 36.6666C17.6945 36.6666 15.5278 36.2291 13.5 35.3541C11.4723 34.4791 9.70837 33.2916 8.20837 31.7916C6.70837 30.2916 5.52087 28.5278 4.64587 26.5C3.77087 24.4722 3.33337 22.3055 3.33337 20C3.33337 17.6944 3.77087 15.5278 4.64587 13.5C5.52087 11.4722 6.70837 9.70831 8.20837 8.20831C9.70837 6.70831 11.4723 5.52081 13.5 4.64581C15.5278 3.77081 17.6945 3.33331 20 3.33331C22.3056 3.33331 24.4723 3.77081 26.5 4.64581C28.5278 5.52081 30.2917 6.70831 31.7917 8.20831C33.2917 9.70831 34.4792 11.4722 35.3542 13.5C36.2292 15.5278 36.6667 17.6944 36.6667 20C36.6667 22.3055 36.2292 24.4722 35.3542 26.5C34.4792 28.5278 33.2917 30.2916 31.7917 31.7916C30.2917 33.2916 28.5278 34.4791 26.5 35.3541C24.4723 36.2291 22.3056 36.6666 20 36.6666Z" fill="#C94057"/>
</g>
</g>
<defs>
<filter id="filter0_i_13_609" x="3.33337" y="3.33331" width="35.3334" height="35.3333" filterUnits="userSpaceOnUse" color-interpolation-filters="sRGB">
<feFlood flood-opacity="0" result="BackgroundImageFix"/>
<feBlend mode="normal" in="SourceGraphic" in2="BackgroundImageFix" result="shape"/>
<feColorMatrix in="SourceAlpha" type="matrix" values="0 0 0 0 0 0 0 0 0 0 0 0 0 0 0 0 0 0 127 0" result="hardAlpha"/>
<feOffset dx="2" dy="2"/>
<feGaussianBlur stdDeviation="1.5"/>
<feComposite in2="hardAlpha" operator="arithmetic" k2="-1" k3="1"/>
<feColorMatrix type="matrix" values="0 0 0 0 0 0 0 0 0 0 0 0 0 0 0 0 0 0 0.25 0"/>
<feBlend mode="normal" in2="shape" result="effect1_innerShadow_13_609"/>
</filter>
</defs>
</svg>
