<svg width="980" height="454" viewBox="0 0 980 454" fill="none" xmlns="http://www.w3.org/2000/svg">
<path d="M4 2C4 3.10457 3.10457 4 2 4C0.895431 4 0 3.10457 0 2C0 0.895431 0.895431 0 2 0C3.10457 0 4 0.895431 4 2Z" fill="#C94057" fill-opacity="0.6"/>
<path d="M4 52C4 53.1046 3.10457 54 2 54C0.895431 54 0 53.1046 0 52C0 50.8954 0.895431 50 2 50C3.10457 50 4 50.8954 4 52Z" fill="#C94057" fill-opacity="0.6"/>
<path d="M4 102C4 103.105 3.10457 104 2 104C0.895431 104 0 103.105 0 102C0 100.895 0.895431 100 2 100C3.10457 100 4 100.895 4 102Z" fill="#C94057" fill-opacity="0.6"/>
<path d="M4 152C4 153.105 3.10457 154 2 154C0.895431 154 0 153.105 0 152C0 150.895 0.895431 150 2 150C3.10457 150 4 150.895 4 152Z" fill="#C94057" fill-opacity="0.6"/>
<path d="M4 202C4 203.105 3.10457 204 2 204C0.895431 204 0 203.105 0 202C0 200.895 0.895431 200 2 200C3.10457 200 4 200.895 4 202Z" fill="#C94057" fill-opacity="0.6"/>
<path d="M4 252C4 253.105 3.10457 254 2 254C0.895431 254 0 253.105 0 252C0 250.895 0.895431 250 2 250C3.10457 250 4 250.895 4 252Z" fill="#C94057" fill-opacity="0.6"/>
<path d="M4 302C4 303.105 3.10457 304 2 304C0.895431 304 0 303.105 0 302C0 300.895 0.895431 300 2 300C3.10457 300 4 300.895 4 302Z" fill="#C94057" fill-opacity="0.6"/>
<path d="M4 352C4 353.105 3.10457 354 2 354C0.895431 354 0 353.105 0 352C0 350.895 0.895431 350 2 350C3.10457 350 4 350.895 4 352Z" fill="#C94057" fill-opacity="0.6"/>
<path d="M4 402C4 403.105 3.10457 404 2 404C0.895431 404 0 403.105 0 402C0 400.895 0.895431 400 2 400C3.10457 400 4 400.895 4 402Z" fill="#C94057" fill-opacity="0.6"/>
<path d="M4 452C4 453.105 3.10457 454 2 454C0.895431 454 0 453.105 0 452C0 450.895 0.895431 450 2 450C3.10457 450 4 450.895 4 452Z" fill="#C94057" fill-opacity="0.6"/>
<path d="M51 2C51 3.10457 50.1046 4 49 4C47.8954 4 47 3.10457 47 2C47 0.895431 47.8954 0 49 0C50.1046 0 51 0.895431 51 2Z" fill="#C94057" fill-opacity="0.6"/>
<path d="M51 52C51 53.1046 50.1046 54 49 54C47.8954 54 47 53.1046 47 52C47 50.8954 47.8954 50 49 50C50.1046 50 51 50.8954 51 52Z" fill="#C94057" fill-opacity="0.6"/>
<path d="M51 102C51 103.105 50.1046 104 49 104C47.8954 104 47 103.105 47 102C47 100.895 47.8954 100 49 100C50.1046 100 51 100.895 51 102Z" fill="#C94057" fill-opacity="0.6"/>
<path d="M51 152C51 153.105 50.1046 154 49 154C47.8954 154 47 153.105 47 152C47 150.895 47.8954 150 49 150C50.1046 150 51 150.895 51 152Z" fill="#C94057" fill-opacity="0.6"/>
<path d="M51 202C51 203.105 50.1046 204 49 204C47.8954 204 47 203.105 47 202C47 200.895 47.8954 200 49 200C50.1046 200 51 200.895 51 202Z" fill="#C94057" fill-opacity="0.6"/>
<path d="M51 252C51 253.105 50.1046 254 49 254C47.8954 254 47 253.105 47 252C47 250.895 47.8954 250 49 250C50.1046 250 51 250.895 51 252Z" fill="#C94057" fill-opacity="0.6"/>
<path d="M51 302C51 303.105 50.1046 304 49 304C47.8954 304 47 303.105 47 302C47 300.895 47.8954 300 49 300C50.1046 300 51 300.895 51 302Z" fill="#C94057" fill-opacity="0.6"/>
<path d="M51 352C51 353.105 50.1046 354 49 354C47.8954 354 47 353.105 47 352C47 350.895 47.8954 350 49 350C50.1046 350 51 350.895 51 352Z" fill="#C94057" fill-opacity="0.6"/>
<path d="M51 402C51 403.105 50.1046 404 49 404C47.8954 404 47 403.105 47 402C47 400.895 47.8954 400 49 400C50.1046 400 51 400.895 51 402Z" fill="#C94057" fill-opacity="0.6"/>
<path d="M51 452C51 453.105 50.1046 454 49 454C47.8954 454 47 453.105 47 452C47 450.895 47.8954 450 49 450C50.1046 450 51 450.895 51 452Z" fill="#C94057" fill-opacity="0.6"/>
<path d="M97 2C97 3.10457 96.1046 4 95 4C93.8954 4 93 3.10457 93 2C93 0.895431 93.8954 0 95 0C96.1046 0 97 0.895431 97 2Z" fill="#C94057" fill-opacity="0.6"/>
<path d="M97 52C97 53.1046 96.1046 54 95 54C93.8954 54 93 53.1046 93 52C93 50.8954 93.8954 50 95 50C96.1046 50 97 50.8954 97 52Z" fill="#C94057" fill-opacity="0.6"/>
<path d="M97 102C97 103.105 96.1046 104 95 104C93.8954 104 93 103.105 93 102C93 100.895 93.8954 100 95 100C96.1046 100 97 100.895 97 102Z" fill="#C94057" fill-opacity="0.6"/>
<path d="M97 152C97 153.105 96.1046 154 95 154C93.8954 154 93 153.105 93 152C93 150.895 93.8954 150 95 150C96.1046 150 97 150.895 97 152Z" fill="#C94057" fill-opacity="0.6"/>
<path d="M97 202C97 203.105 96.1046 204 95 204C93.8954 204 93 203.105 93 202C93 200.895 93.8954 200 95 200C96.1046 200 97 200.895 97 202Z" fill="#C94057" fill-opacity="0.6"/>
<path d="M97 252C97 253.105 96.1046 254 95 254C93.8954 254 93 253.105 93 252C93 250.895 93.8954 250 95 250C96.1046 250 97 250.895 97 252Z" fill="#C94057" fill-opacity="0.6"/>
<path d="M97 302C97 303.105 96.1046 304 95 304C93.8954 304 93 303.105 93 302C93 300.895 93.8954 300 95 300C96.1046 300 97 300.895 97 302Z" fill="#C94057" fill-opacity="0.6"/>
<path d="M97 352C97 353.105 96.1046 354 95 354C93.8954 354 93 353.105 93 352C93 350.895 93.8954 350 95 350C96.1046 350 97 350.895 97 352Z" fill="#C94057" fill-opacity="0.6"/>
<path d="M97 402C97 403.105 96.1046 404 95 404C93.8954 404 93 403.105 93 402C93 400.895 93.8954 400 95 400C96.1046 400 97 400.895 97 402Z" fill="#C94057" fill-opacity="0.6"/>
<path d="M97 452C97 453.105 96.1046 454 95 454C93.8954 454 93 453.105 93 452C93 450.895 93.8954 450 95 450C96.1046 450 97 450.895 97 452Z" fill="#C94057" fill-opacity="0.6"/>
<path d="M144 2C144 3.10457 143.105 4 142 4C140.895 4 140 3.10457 140 2C140 0.895431 140.895 0 142 0C143.105 0 144 0.895431 144 2Z" fill="#C94057" fill-opacity="0.6"/>
<path d="M144 52C144 53.1046 143.105 54 142 54C140.895 54 140 53.1046 140 52C140 50.8954 140.895 50 142 50C143.105 50 144 50.8954 144 52Z" fill="#C94057" fill-opacity="0.6"/>
<path d="M144 102C144 103.105 143.105 104 142 104C140.895 104 140 103.105 140 102C140 100.895 140.895 100 142 100C143.105 100 144 100.895 144 102Z" fill="#C94057" fill-opacity="0.6"/>
<path d="M144 152C144 153.105 143.105 154 142 154C140.895 154 140 153.105 140 152C140 150.895 140.895 150 142 150C143.105 150 144 150.895 144 152Z" fill="#C94057" fill-opacity="0.6"/>
<path d="M144 202C144 203.105 143.105 204 142 204C140.895 204 140 203.105 140 202C140 200.895 140.895 200 142 200C143.105 200 144 200.895 144 202Z" fill="#C94057" fill-opacity="0.6"/>
<path d="M144 252C144 253.105 143.105 254 142 254C140.895 254 140 253.105 140 252C140 250.895 140.895 250 142 250C143.105 250 144 250.895 144 252Z" fill="#C94057" fill-opacity="0.6"/>
<path d="M144 302C144 303.105 143.105 304 142 304C140.895 304 140 303.105 140 302C140 300.895 140.895 300 142 300C143.105 300 144 300.895 144 302Z" fill="#C94057" fill-opacity="0.6"/>
<path d="M144 352C144 353.105 143.105 354 142 354C140.895 354 140 353.105 140 352C140 350.895 140.895 350 142 350C143.105 350 144 350.895 144 352Z" fill="#C94057" fill-opacity="0.6"/>
<path d="M144 402C144 403.105 143.105 404 142 404C140.895 404 140 403.105 140 402C140 400.895 140.895 400 142 400C143.105 400 144 400.895 144 402Z" fill="#C94057" fill-opacity="0.6"/>
<path d="M144 452C144 453.105 143.105 454 142 454C140.895 454 140 453.105 140 452C140 450.895 140.895 450 142 450C143.105 450 144 450.895 144 452Z" fill="#C94057" fill-opacity="0.6"/>
<path d="M190 2C190 3.10457 189.105 4 188 4C186.895 4 186 3.10457 186 2C186 0.895431 186.895 0 188 0C189.105 0 190 0.895431 190 2Z" fill="#C94057" fill-opacity="0.6"/>
<path d="M190 52C190 53.1046 189.105 54 188 54C186.895 54 186 53.1046 186 52C186 50.8954 186.895 50 188 50C189.105 50 190 50.8954 190 52Z" fill="#C94057" fill-opacity="0.6"/>
<path d="M190 102C190 103.105 189.105 104 188 104C186.895 104 186 103.105 186 102C186 100.895 186.895 100 188 100C189.105 100 190 100.895 190 102Z" fill="#C94057" fill-opacity="0.6"/>
<path d="M190 152C190 153.105 189.105 154 188 154C186.895 154 186 153.105 186 152C186 150.895 186.895 150 188 150C189.105 150 190 150.895 190 152Z" fill="#C94057" fill-opacity="0.6"/>
<path d="M190 202C190 203.105 189.105 204 188 204C186.895 204 186 203.105 186 202C186 200.895 186.895 200 188 200C189.105 200 190 200.895 190 202Z" fill="#C94057" fill-opacity="0.6"/>
<path d="M190 252C190 253.105 189.105 254 188 254C186.895 254 186 253.105 186 252C186 250.895 186.895 250 188 250C189.105 250 190 250.895 190 252Z" fill="#C94057" fill-opacity="0.6"/>
<path d="M190 302C190 303.105 189.105 304 188 304C186.895 304 186 303.105 186 302C186 300.895 186.895 300 188 300C189.105 300 190 300.895 190 302Z" fill="#C94057" fill-opacity="0.6"/>
<path d="M190 352C190 353.105 189.105 354 188 354C186.895 354 186 353.105 186 352C186 350.895 186.895 350 188 350C189.105 350 190 350.895 190 352Z" fill="#C94057" fill-opacity="0.6"/>
<path d="M190 402C190 403.105 189.105 404 188 404C186.895 404 186 403.105 186 402C186 400.895 186.895 400 188 400C189.105 400 190 400.895 190 402Z" fill="#C94057" fill-opacity="0.6"/>
<path d="M190 452C190 453.105 189.105 454 188 454C186.895 454 186 453.105 186 452C186 450.895 186.895 450 188 450C189.105 450 190 450.895 190 452Z" fill="#C94057" fill-opacity="0.6"/>
<path d="M237 2C237 3.10457 236.105 4 235 4C233.895 4 233 3.10457 233 2C233 0.895431 233.895 0 235 0C236.105 0 237 0.895431 237 2Z" fill="#C94057" fill-opacity="0.6"/>
<path d="M237 52C237 53.1046 236.105 54 235 54C233.895 54 233 53.1046 233 52C233 50.8954 233.895 50 235 50C236.105 50 237 50.8954 237 52Z" fill="#C94057" fill-opacity="0.6"/>
<path d="M237 102C237 103.105 236.105 104 235 104C233.895 104 233 103.105 233 102C233 100.895 233.895 100 235 100C236.105 100 237 100.895 237 102Z" fill="#C94057" fill-opacity="0.6"/>
<path d="M237 152C237 153.105 236.105 154 235 154C233.895 154 233 153.105 233 152C233 150.895 233.895 150 235 150C236.105 150 237 150.895 237 152Z" fill="#C94057" fill-opacity="0.6"/>
<path d="M237 202C237 203.105 236.105 204 235 204C233.895 204 233 203.105 233 202C233 200.895 233.895 200 235 200C236.105 200 237 200.895 237 202Z" fill="#C94057" fill-opacity="0.6"/>
<path d="M237 252C237 253.105 236.105 254 235 254C233.895 254 233 253.105 233 252C233 250.895 233.895 250 235 250C236.105 250 237 250.895 237 252Z" fill="#C94057" fill-opacity="0.6"/>
<path d="M237 302C237 303.105 236.105 304 235 304C233.895 304 233 303.105 233 302C233 300.895 233.895 300 235 300C236.105 300 237 300.895 237 302Z" fill="#C94057" fill-opacity="0.6"/>
<path d="M237 352C237 353.105 236.105 354 235 354C233.895 354 233 353.105 233 352C233 350.895 233.895 350 235 350C236.105 350 237 350.895 237 352Z" fill="#C94057" fill-opacity="0.6"/>
<path d="M237 402C237 403.105 236.105 404 235 404C233.895 404 233 403.105 233 402C233 400.895 233.895 400 235 400C236.105 400 237 400.895 237 402Z" fill="#C94057" fill-opacity="0.6"/>
<path d="M237 452C237 453.105 236.105 454 235 454C233.895 454 233 453.105 233 452C233 450.895 233.895 450 235 450C236.105 450 237 450.895 237 452Z" fill="#C94057" fill-opacity="0.6"/>
<path d="M283 2C283 3.10457 282.105 4 281 4C279.895 4 279 3.10457 279 2C279 0.895431 279.895 0 281 0C282.105 0 283 0.895431 283 2Z" fill="#C94057" fill-opacity="0.6"/>
<path d="M283 52C283 53.1046 282.105 54 281 54C279.895 54 279 53.1046 279 52C279 50.8954 279.895 50 281 50C282.105 50 283 50.8954 283 52Z" fill="#C94057" fill-opacity="0.6"/>
<path d="M283 102C283 103.105 282.105 104 281 104C279.895 104 279 103.105 279 102C279 100.895 279.895 100 281 100C282.105 100 283 100.895 283 102Z" fill="#C94057" fill-opacity="0.6"/>
<path d="M283 152C283 153.105 282.105 154 281 154C279.895 154 279 153.105 279 152C279 150.895 279.895 150 281 150C282.105 150 283 150.895 283 152Z" fill="#C94057" fill-opacity="0.6"/>
<path d="M283 202C283 203.105 282.105 204 281 204C279.895 204 279 203.105 279 202C279 200.895 279.895 200 281 200C282.105 200 283 200.895 283 202Z" fill="#C94057" fill-opacity="0.6"/>
<path d="M283 252C283 253.105 282.105 254 281 254C279.895 254 279 253.105 279 252C279 250.895 279.895 250 281 250C282.105 250 283 250.895 283 252Z" fill="#C94057" fill-opacity="0.6"/>
<path d="M283 302C283 303.105 282.105 304 281 304C279.895 304 279 303.105 279 302C279 300.895 279.895 300 281 300C282.105 300 283 300.895 283 302Z" fill="#C94057" fill-opacity="0.6"/>
<path d="M283 352C283 353.105 282.105 354 281 354C279.895 354 279 353.105 279 352C279 350.895 279.895 350 281 350C282.105 350 283 350.895 283 352Z" fill="#C94057" fill-opacity="0.6"/>
<path d="M283 402C283 403.105 282.105 404 281 404C279.895 404 279 403.105 279 402C279 400.895 279.895 400 281 400C282.105 400 283 400.895 283 402Z" fill="#C94057" fill-opacity="0.6"/>
<path d="M283 452C283 453.105 282.105 454 281 454C279.895 454 279 453.105 279 452C279 450.895 279.895 450 281 450C282.105 450 283 450.895 283 452Z" fill="#C94057" fill-opacity="0.6"/>
<path d="M330 2C330 3.10457 329.105 4 328 4C326.895 4 326 3.10457 326 2C326 0.895431 326.895 0 328 0C329.105 0 330 0.895431 330 2Z" fill="#C94057" fill-opacity="0.6"/>
<path d="M330 52C330 53.1046 329.105 54 328 54C326.895 54 326 53.1046 326 52C326 50.8954 326.895 50 328 50C329.105 50 330 50.8954 330 52Z" fill="#C94057" fill-opacity="0.6"/>
<path d="M330 102C330 103.105 329.105 104 328 104C326.895 104 326 103.105 326 102C326 100.895 326.895 100 328 100C329.105 100 330 100.895 330 102Z" fill="#C94057" fill-opacity="0.6"/>
<path d="M330 152C330 153.105 329.105 154 328 154C326.895 154 326 153.105 326 152C326 150.895 326.895 150 328 150C329.105 150 330 150.895 330 152Z" fill="#C94057" fill-opacity="0.6"/>
<path d="M330 202C330 203.105 329.105 204 328 204C326.895 204 326 203.105 326 202C326 200.895 326.895 200 328 200C329.105 200 330 200.895 330 202Z" fill="#C94057" fill-opacity="0.6"/>
<path d="M330 252C330 253.105 329.105 254 328 254C326.895 254 326 253.105 326 252C326 250.895 326.895 250 328 250C329.105 250 330 250.895 330 252Z" fill="#C94057" fill-opacity="0.6"/>
<path d="M330 302C330 303.105 329.105 304 328 304C326.895 304 326 303.105 326 302C326 300.895 326.895 300 328 300C329.105 300 330 300.895 330 302Z" fill="#C94057" fill-opacity="0.6"/>
<path d="M330 352C330 353.105 329.105 354 328 354C326.895 354 326 353.105 326 352C326 350.895 326.895 350 328 350C329.105 350 330 350.895 330 352Z" fill="#C94057" fill-opacity="0.6"/>
<path d="M330 402C330 403.105 329.105 404 328 404C326.895 404 326 403.105 326 402C326 400.895 326.895 400 328 400C329.105 400 330 400.895 330 402Z" fill="#C94057" fill-opacity="0.6"/>
<path d="M330 452C330 453.105 329.105 454 328 454C326.895 454 326 453.105 326 452C326 450.895 326.895 450 328 450C329.105 450 330 450.895 330 452Z" fill="#C94057" fill-opacity="0.6"/>
<path d="M376 2C376 3.10457 375.105 4 374 4C372.895 4 372 3.10457 372 2C372 0.895431 372.895 0 374 0C375.105 0 376 0.895431 376 2Z" fill="#C94057" fill-opacity="0.6"/>
<path d="M376 52C376 53.1046 375.105 54 374 54C372.895 54 372 53.1046 372 52C372 50.8954 372.895 50 374 50C375.105 50 376 50.8954 376 52Z" fill="#C94057" fill-opacity="0.6"/>
<path d="M376 102C376 103.105 375.105 104 374 104C372.895 104 372 103.105 372 102C372 100.895 372.895 100 374 100C375.105 100 376 100.895 376 102Z" fill="#C94057" fill-opacity="0.6"/>
<path d="M376 152C376 153.105 375.105 154 374 154C372.895 154 372 153.105 372 152C372 150.895 372.895 150 374 150C375.105 150 376 150.895 376 152Z" fill="#C94057" fill-opacity="0.6"/>
<path d="M376 202C376 203.105 375.105 204 374 204C372.895 204 372 203.105 372 202C372 200.895 372.895 200 374 200C375.105 200 376 200.895 376 202Z" fill="#C94057" fill-opacity="0.6"/>
<path d="M376 252C376 253.105 375.105 254 374 254C372.895 254 372 253.105 372 252C372 250.895 372.895 250 374 250C375.105 250 376 250.895 376 252Z" fill="#C94057" fill-opacity="0.6"/>
<path d="M376 302C376 303.105 375.105 304 374 304C372.895 304 372 303.105 372 302C372 300.895 372.895 300 374 300C375.105 300 376 300.895 376 302Z" fill="#C94057" fill-opacity="0.6"/>
<path d="M376 352C376 353.105 375.105 354 374 354C372.895 354 372 353.105 372 352C372 350.895 372.895 350 374 350C375.105 350 376 350.895 376 352Z" fill="#C94057" fill-opacity="0.6"/>
<path d="M376 402C376 403.105 375.105 404 374 404C372.895 404 372 403.105 372 402C372 400.895 372.895 400 374 400C375.105 400 376 400.895 376 402Z" fill="#C94057" fill-opacity="0.6"/>
<path d="M376 452C376 453.105 375.105 454 374 454C372.895 454 372 453.105 372 452C372 450.895 372.895 450 374 450C375.105 450 376 450.895 376 452Z" fill="#C94057" fill-opacity="0.6"/>
<path d="M423 2C423 3.10457 422.105 4 421 4C419.895 4 419 3.10457 419 2C419 0.895431 419.895 0 421 0C422.105 0 423 0.895431 423 2Z" fill="#C94057" fill-opacity="0.6"/>
<path d="M423 52C423 53.1046 422.105 54 421 54C419.895 54 419 53.1046 419 52C419 50.8954 419.895 50 421 50C422.105 50 423 50.8954 423 52Z" fill="#C94057" fill-opacity="0.6"/>
<path d="M423 102C423 103.105 422.105 104 421 104C419.895 104 419 103.105 419 102C419 100.895 419.895 100 421 100C422.105 100 423 100.895 423 102Z" fill="#C94057" fill-opacity="0.6"/>
<path d="M423 152C423 153.105 422.105 154 421 154C419.895 154 419 153.105 419 152C419 150.895 419.895 150 421 150C422.105 150 423 150.895 423 152Z" fill="#C94057" fill-opacity="0.6"/>
<path d="M423 202C423 203.105 422.105 204 421 204C419.895 204 419 203.105 419 202C419 200.895 419.895 200 421 200C422.105 200 423 200.895 423 202Z" fill="#C94057" fill-opacity="0.6"/>
<path d="M423 252C423 253.105 422.105 254 421 254C419.895 254 419 253.105 419 252C419 250.895 419.895 250 421 250C422.105 250 423 250.895 423 252Z" fill="#C94057" fill-opacity="0.6"/>
<path d="M423 302C423 303.105 422.105 304 421 304C419.895 304 419 303.105 419 302C419 300.895 419.895 300 421 300C422.105 300 423 300.895 423 302Z" fill="#C94057" fill-opacity="0.6"/>
<path d="M423 352C423 353.105 422.105 354 421 354C419.895 354 419 353.105 419 352C419 350.895 419.895 350 421 350C422.105 350 423 350.895 423 352Z" fill="#C94057" fill-opacity="0.6"/>
<path d="M423 402C423 403.105 422.105 404 421 404C419.895 404 419 403.105 419 402C419 400.895 419.895 400 421 400C422.105 400 423 400.895 423 402Z" fill="#C94057" fill-opacity="0.6"/>
<path d="M423 452C423 453.105 422.105 454 421 454C419.895 454 419 453.105 419 452C419 450.895 419.895 450 421 450C422.105 450 423 450.895 423 452Z" fill="#C94057" fill-opacity="0.6"/>
<path d="M469 2C469 3.10457 468.105 4 467 4C465.895 4 465 3.10457 465 2C465 0.895431 465.895 0 467 0C468.105 0 469 0.895431 469 2Z" fill="#C94057" fill-opacity="0.6"/>
<path d="M469 52C469 53.1046 468.105 54 467 54C465.895 54 465 53.1046 465 52C465 50.8954 465.895 50 467 50C468.105 50 469 50.8954 469 52Z" fill="#C94057" fill-opacity="0.6"/>
<path d="M469 102C469 103.105 468.105 104 467 104C465.895 104 465 103.105 465 102C465 100.895 465.895 100 467 100C468.105 100 469 100.895 469 102Z" fill="#C94057" fill-opacity="0.6"/>
<path d="M469 152C469 153.105 468.105 154 467 154C465.895 154 465 153.105 465 152C465 150.895 465.895 150 467 150C468.105 150 469 150.895 469 152Z" fill="#C94057" fill-opacity="0.6"/>
<path d="M469 202C469 203.105 468.105 204 467 204C465.895 204 465 203.105 465 202C465 200.895 465.895 200 467 200C468.105 200 469 200.895 469 202Z" fill="#C94057" fill-opacity="0.6"/>
<path d="M469 252C469 253.105 468.105 254 467 254C465.895 254 465 253.105 465 252C465 250.895 465.895 250 467 250C468.105 250 469 250.895 469 252Z" fill="#C94057" fill-opacity="0.6"/>
<path d="M469 302C469 303.105 468.105 304 467 304C465.895 304 465 303.105 465 302C465 300.895 465.895 300 467 300C468.105 300 469 300.895 469 302Z" fill="#C94057" fill-opacity="0.6"/>
<path d="M469 352C469 353.105 468.105 354 467 354C465.895 354 465 353.105 465 352C465 350.895 465.895 350 467 350C468.105 350 469 350.895 469 352Z" fill="#C94057" fill-opacity="0.6"/>
<path d="M469 402C469 403.105 468.105 404 467 404C465.895 404 465 403.105 465 402C465 400.895 465.895 400 467 400C468.105 400 469 400.895 469 402Z" fill="#C94057" fill-opacity="0.6"/>
<path d="M469 452C469 453.105 468.105 454 467 454C465.895 454 465 453.105 465 452C465 450.895 465.895 450 467 450C468.105 450 469 450.895 469 452Z" fill="#C94057" fill-opacity="0.6"/>
<path d="M516 2C516 3.10457 515.105 4 514 4C512.895 4 512 3.10457 512 2C512 0.895431 512.895 0 514 0C515.105 0 516 0.895431 516 2Z" fill="#C94057" fill-opacity="0.6"/>
<path d="M516 52C516 53.1046 515.105 54 514 54C512.895 54 512 53.1046 512 52C512 50.8954 512.895 50 514 50C515.105 50 516 50.8954 516 52Z" fill="#C94057" fill-opacity="0.6"/>
<path d="M516 102C516 103.105 515.105 104 514 104C512.895 104 512 103.105 512 102C512 100.895 512.895 100 514 100C515.105 100 516 100.895 516 102Z" fill="#C94057" fill-opacity="0.6"/>
<path d="M516 152C516 153.105 515.105 154 514 154C512.895 154 512 153.105 512 152C512 150.895 512.895 150 514 150C515.105 150 516 150.895 516 152Z" fill="#C94057" fill-opacity="0.6"/>
<path d="M516 202C516 203.105 515.105 204 514 204C512.895 204 512 203.105 512 202C512 200.895 512.895 200 514 200C515.105 200 516 200.895 516 202Z" fill="#C94057" fill-opacity="0.6"/>
<path d="M516 252C516 253.105 515.105 254 514 254C512.895 254 512 253.105 512 252C512 250.895 512.895 250 514 250C515.105 250 516 250.895 516 252Z" fill="#C94057" fill-opacity="0.6"/>
<path d="M516 302C516 303.105 515.105 304 514 304C512.895 304 512 303.105 512 302C512 300.895 512.895 300 514 300C515.105 300 516 300.895 516 302Z" fill="#C94057" fill-opacity="0.6"/>
<path d="M516 352C516 353.105 515.105 354 514 354C512.895 354 512 353.105 512 352C512 350.895 512.895 350 514 350C515.105 350 516 350.895 516 352Z" fill="#C94057" fill-opacity="0.6"/>
<path d="M516 402C516 403.105 515.105 404 514 404C512.895 404 512 403.105 512 402C512 400.895 512.895 400 514 400C515.105 400 516 400.895 516 402Z" fill="#C94057" fill-opacity="0.6"/>
<path d="M516 452C516 453.105 515.105 454 514 454C512.895 454 512 453.105 512 452C512 450.895 512.895 450 514 450C515.105 450 516 450.895 516 452Z" fill="#C94057" fill-opacity="0.6"/>
<path d="M562 2C562 3.10457 561.105 4 560 4C558.895 4 558 3.10457 558 2C558 0.895431 558.895 0 560 0C561.105 0 562 0.895431 562 2Z" fill="#C94057" fill-opacity="0.6"/>
<path d="M562 52C562 53.1046 561.105 54 560 54C558.895 54 558 53.1046 558 52C558 50.8954 558.895 50 560 50C561.105 50 562 50.8954 562 52Z" fill="#C94057" fill-opacity="0.6"/>
<path d="M562 102C562 103.105 561.105 104 560 104C558.895 104 558 103.105 558 102C558 100.895 558.895 100 560 100C561.105 100 562 100.895 562 102Z" fill="#C94057" fill-opacity="0.6"/>
<path d="M562 152C562 153.105 561.105 154 560 154C558.895 154 558 153.105 558 152C558 150.895 558.895 150 560 150C561.105 150 562 150.895 562 152Z" fill="#C94057" fill-opacity="0.6"/>
<path d="M562 202C562 203.105 561.105 204 560 204C558.895 204 558 203.105 558 202C558 200.895 558.895 200 560 200C561.105 200 562 200.895 562 202Z" fill="#C94057" fill-opacity="0.6"/>
<path d="M562 252C562 253.105 561.105 254 560 254C558.895 254 558 253.105 558 252C558 250.895 558.895 250 560 250C561.105 250 562 250.895 562 252Z" fill="#C94057" fill-opacity="0.6"/>
<path d="M562 302C562 303.105 561.105 304 560 304C558.895 304 558 303.105 558 302C558 300.895 558.895 300 560 300C561.105 300 562 300.895 562 302Z" fill="#C94057" fill-opacity="0.6"/>
<path d="M562 352C562 353.105 561.105 354 560 354C558.895 354 558 353.105 558 352C558 350.895 558.895 350 560 350C561.105 350 562 350.895 562 352Z" fill="#C94057" fill-opacity="0.6"/>
<path d="M562 402C562 403.105 561.105 404 560 404C558.895 404 558 403.105 558 402C558 400.895 558.895 400 560 400C561.105 400 562 400.895 562 402Z" fill="#C94057" fill-opacity="0.6"/>
<path d="M562 452C562 453.105 561.105 454 560 454C558.895 454 558 453.105 558 452C558 450.895 558.895 450 560 450C561.105 450 562 450.895 562 452Z" fill="#C94057" fill-opacity="0.6"/>
<path d="M608 2C608 3.10457 607.105 4 606 4C604.895 4 604 3.10457 604 2C604 0.895431 604.895 0 606 0C607.105 0 608 0.895431 608 2Z" fill="#C94057" fill-opacity="0.6"/>
<path d="M608 52C608 53.1046 607.105 54 606 54C604.895 54 604 53.1046 604 52C604 50.8954 604.895 50 606 50C607.105 50 608 50.8954 608 52Z" fill="#C94057" fill-opacity="0.6"/>
<path d="M608 102C608 103.105 607.105 104 606 104C604.895 104 604 103.105 604 102C604 100.895 604.895 100 606 100C607.105 100 608 100.895 608 102Z" fill="#C94057" fill-opacity="0.6"/>
<path d="M608 152C608 153.105 607.105 154 606 154C604.895 154 604 153.105 604 152C604 150.895 604.895 150 606 150C607.105 150 608 150.895 608 152Z" fill="#C94057" fill-opacity="0.6"/>
<path d="M608 202C608 203.105 607.105 204 606 204C604.895 204 604 203.105 604 202C604 200.895 604.895 200 606 200C607.105 200 608 200.895 608 202Z" fill="#C94057" fill-opacity="0.6"/>
<path d="M608 252C608 253.105 607.105 254 606 254C604.895 254 604 253.105 604 252C604 250.895 604.895 250 606 250C607.105 250 608 250.895 608 252Z" fill="#C94057" fill-opacity="0.6"/>
<path d="M608 302C608 303.105 607.105 304 606 304C604.895 304 604 303.105 604 302C604 300.895 604.895 300 606 300C607.105 300 608 300.895 608 302Z" fill="#C94057" fill-opacity="0.6"/>
<path d="M608 352C608 353.105 607.105 354 606 354C604.895 354 604 353.105 604 352C604 350.895 604.895 350 606 350C607.105 350 608 350.895 608 352Z" fill="#C94057" fill-opacity="0.6"/>
<path d="M608 402C608 403.105 607.105 404 606 404C604.895 404 604 403.105 604 402C604 400.895 604.895 400 606 400C607.105 400 608 400.895 608 402Z" fill="#C94057" fill-opacity="0.6"/>
<path d="M608 452C608 453.105 607.105 454 606 454C604.895 454 604 453.105 604 452C604 450.895 604.895 450 606 450C607.105 450 608 450.895 608 452Z" fill="#C94057" fill-opacity="0.6"/>
<path d="M654 2C654 3.10457 653.105 4 652 4C650.895 4 650 3.10457 650 2C650 0.895431 650.895 0 652 0C653.105 0 654 0.895431 654 2Z" fill="#C94057" fill-opacity="0.6"/>
<path d="M654 52C654 53.1046 653.105 54 652 54C650.895 54 650 53.1046 650 52C650 50.8954 650.895 50 652 50C653.105 50 654 50.8954 654 52Z" fill="#C94057" fill-opacity="0.6"/>
<path d="M654 102C654 103.105 653.105 104 652 104C650.895 104 650 103.105 650 102C650 100.895 650.895 100 652 100C653.105 100 654 100.895 654 102Z" fill="#C94057" fill-opacity="0.6"/>
<path d="M654 152C654 153.105 653.105 154 652 154C650.895 154 650 153.105 650 152C650 150.895 650.895 150 652 150C653.105 150 654 150.895 654 152Z" fill="#C94057" fill-opacity="0.6"/>
<path d="M654 202C654 203.105 653.105 204 652 204C650.895 204 650 203.105 650 202C650 200.895 650.895 200 652 200C653.105 200 654 200.895 654 202Z" fill="#C94057" fill-opacity="0.6"/>
<path d="M654 252C654 253.105 653.105 254 652 254C650.895 254 650 253.105 650 252C650 250.895 650.895 250 652 250C653.105 250 654 250.895 654 252Z" fill="#C94057" fill-opacity="0.6"/>
<path d="M654 302C654 303.105 653.105 304 652 304C650.895 304 650 303.105 650 302C650 300.895 650.895 300 652 300C653.105 300 654 300.895 654 302Z" fill="#C94057" fill-opacity="0.6"/>
<path d="M654 352C654 353.105 653.105 354 652 354C650.895 354 650 353.105 650 352C650 350.895 650.895 350 652 350C653.105 350 654 350.895 654 352Z" fill="#C94057" fill-opacity="0.6"/>
<path d="M654 402C654 403.105 653.105 404 652 404C650.895 404 650 403.105 650 402C650 400.895 650.895 400 652 400C653.105 400 654 400.895 654 402Z" fill="#C94057" fill-opacity="0.6"/>
<path d="M654 452C654 453.105 653.105 454 652 454C650.895 454 650 453.105 650 452C650 450.895 650.895 450 652 450C653.105 450 654 450.895 654 452Z" fill="#C94057" fill-opacity="0.6"/>
<path d="M701 2C701 3.10457 700.105 4 699 4C697.895 4 697 3.10457 697 2C697 0.895431 697.895 0 699 0C700.105 0 701 0.895431 701 2Z" fill="#C94057" fill-opacity="0.6"/>
<path d="M701 52C701 53.1046 700.105 54 699 54C697.895 54 697 53.1046 697 52C697 50.8954 697.895 50 699 50C700.105 50 701 50.8954 701 52Z" fill="#C94057" fill-opacity="0.6"/>
<path d="M701 102C701 103.105 700.105 104 699 104C697.895 104 697 103.105 697 102C697 100.895 697.895 100 699 100C700.105 100 701 100.895 701 102Z" fill="#C94057" fill-opacity="0.6"/>
<path d="M701 152C701 153.105 700.105 154 699 154C697.895 154 697 153.105 697 152C697 150.895 697.895 150 699 150C700.105 150 701 150.895 701 152Z" fill="#C94057" fill-opacity="0.6"/>
<path d="M701 202C701 203.105 700.105 204 699 204C697.895 204 697 203.105 697 202C697 200.895 697.895 200 699 200C700.105 200 701 200.895 701 202Z" fill="#C94057" fill-opacity="0.6"/>
<path d="M701 252C701 253.105 700.105 254 699 254C697.895 254 697 253.105 697 252C697 250.895 697.895 250 699 250C700.105 250 701 250.895 701 252Z" fill="#C94057" fill-opacity="0.6"/>
<path d="M701 302C701 303.105 700.105 304 699 304C697.895 304 697 303.105 697 302C697 300.895 697.895 300 699 300C700.105 300 701 300.895 701 302Z" fill="#C94057" fill-opacity="0.6"/>
<path d="M701 352C701 353.105 700.105 354 699 354C697.895 354 697 353.105 697 352C697 350.895 697.895 350 699 350C700.105 350 701 350.895 701 352Z" fill="#C94057" fill-opacity="0.6"/>
<path d="M701 402C701 403.105 700.105 404 699 404C697.895 404 697 403.105 697 402C697 400.895 697.895 400 699 400C700.105 400 701 400.895 701 402Z" fill="#C94057" fill-opacity="0.6"/>
<path d="M701 452C701 453.105 700.105 454 699 454C697.895 454 697 453.105 697 452C697 450.895 697.895 450 699 450C700.105 450 701 450.895 701 452Z" fill="#C94057" fill-opacity="0.6"/>
<path d="M747 2C747 3.10457 746.105 4 745 4C743.895 4 743 3.10457 743 2C743 0.895431 743.895 0 745 0C746.105 0 747 0.895431 747 2Z" fill="#C94057" fill-opacity="0.6"/>
<path d="M747 52C747 53.1046 746.105 54 745 54C743.895 54 743 53.1046 743 52C743 50.8954 743.895 50 745 50C746.105 50 747 50.8954 747 52Z" fill="#C94057" fill-opacity="0.6"/>
<path d="M747 102C747 103.105 746.105 104 745 104C743.895 104 743 103.105 743 102C743 100.895 743.895 100 745 100C746.105 100 747 100.895 747 102Z" fill="#C94057" fill-opacity="0.6"/>
<path d="M747 152C747 153.105 746.105 154 745 154C743.895 154 743 153.105 743 152C743 150.895 743.895 150 745 150C746.105 150 747 150.895 747 152Z" fill="#C94057" fill-opacity="0.6"/>
<path d="M747 202C747 203.105 746.105 204 745 204C743.895 204 743 203.105 743 202C743 200.895 743.895 200 745 200C746.105 200 747 200.895 747 202Z" fill="#C94057" fill-opacity="0.6"/>
<path d="M747 252C747 253.105 746.105 254 745 254C743.895 254 743 253.105 743 252C743 250.895 743.895 250 745 250C746.105 250 747 250.895 747 252Z" fill="#C94057" fill-opacity="0.6"/>
<path d="M747 302C747 303.105 746.105 304 745 304C743.895 304 743 303.105 743 302C743 300.895 743.895 300 745 300C746.105 300 747 300.895 747 302Z" fill="#C94057" fill-opacity="0.6"/>
<path d="M747 352C747 353.105 746.105 354 745 354C743.895 354 743 353.105 743 352C743 350.895 743.895 350 745 350C746.105 350 747 350.895 747 352Z" fill="#C94057" fill-opacity="0.6"/>
<path d="M747 402C747 403.105 746.105 404 745 404C743.895 404 743 403.105 743 402C743 400.895 743.895 400 745 400C746.105 400 747 400.895 747 402Z" fill="#C94057" fill-opacity="0.6"/>
<path d="M747 452C747 453.105 746.105 454 745 454C743.895 454 743 453.105 743 452C743 450.895 743.895 450 745 450C746.105 450 747 450.895 747 452Z" fill="#C94057" fill-opacity="0.6"/>
<path d="M794 2C794 3.10457 793.105 4 792 4C790.895 4 790 3.10457 790 2C790 0.895431 790.895 0 792 0C793.105 0 794 0.895431 794 2Z" fill="#C94057" fill-opacity="0.6"/>
<path d="M794 52C794 53.1046 793.105 54 792 54C790.895 54 790 53.1046 790 52C790 50.8954 790.895 50 792 50C793.105 50 794 50.8954 794 52Z" fill="#C94057" fill-opacity="0.6"/>
<path d="M794 102C794 103.105 793.105 104 792 104C790.895 104 790 103.105 790 102C790 100.895 790.895 100 792 100C793.105 100 794 100.895 794 102Z" fill="#C94057" fill-opacity="0.6"/>
<path d="M794 152C794 153.105 793.105 154 792 154C790.895 154 790 153.105 790 152C790 150.895 790.895 150 792 150C793.105 150 794 150.895 794 152Z" fill="#C94057" fill-opacity="0.6"/>
<path d="M794 202C794 203.105 793.105 204 792 204C790.895 204 790 203.105 790 202C790 200.895 790.895 200 792 200C793.105 200 794 200.895 794 202Z" fill="#C94057" fill-opacity="0.6"/>
<path d="M794 252C794 253.105 793.105 254 792 254C790.895 254 790 253.105 790 252C790 250.895 790.895 250 792 250C793.105 250 794 250.895 794 252Z" fill="#C94057" fill-opacity="0.6"/>
<path d="M794 302C794 303.105 793.105 304 792 304C790.895 304 790 303.105 790 302C790 300.895 790.895 300 792 300C793.105 300 794 300.895 794 302Z" fill="#C94057" fill-opacity="0.6"/>
<path d="M794 352C794 353.105 793.105 354 792 354C790.895 354 790 353.105 790 352C790 350.895 790.895 350 792 350C793.105 350 794 350.895 794 352Z" fill="#C94057" fill-opacity="0.6"/>
<path d="M794 402C794 403.105 793.105 404 792 404C790.895 404 790 403.105 790 402C790 400.895 790.895 400 792 400C793.105 400 794 400.895 794 402Z" fill="#C94057" fill-opacity="0.6"/>
<path d="M794 452C794 453.105 793.105 454 792 454C790.895 454 790 453.105 790 452C790 450.895 790.895 450 792 450C793.105 450 794 450.895 794 452Z" fill="#C94057" fill-opacity="0.6"/>
<path d="M840 2C840 3.10457 839.105 4 838 4C836.895 4 836 3.10457 836 2C836 0.895431 836.895 0 838 0C839.105 0 840 0.895431 840 2Z" fill="#C94057" fill-opacity="0.6"/>
<path d="M840 52C840 53.1046 839.105 54 838 54C836.895 54 836 53.1046 836 52C836 50.8954 836.895 50 838 50C839.105 50 840 50.8954 840 52Z" fill="#C94057" fill-opacity="0.6"/>
<path d="M840 102C840 103.105 839.105 104 838 104C836.895 104 836 103.105 836 102C836 100.895 836.895 100 838 100C839.105 100 840 100.895 840 102Z" fill="#C94057" fill-opacity="0.6"/>
<path d="M840 152C840 153.105 839.105 154 838 154C836.895 154 836 153.105 836 152C836 150.895 836.895 150 838 150C839.105 150 840 150.895 840 152Z" fill="#C94057" fill-opacity="0.6"/>
<path d="M840 202C840 203.105 839.105 204 838 204C836.895 204 836 203.105 836 202C836 200.895 836.895 200 838 200C839.105 200 840 200.895 840 202Z" fill="#C94057" fill-opacity="0.6"/>
<path d="M840 252C840 253.105 839.105 254 838 254C836.895 254 836 253.105 836 252C836 250.895 836.895 250 838 250C839.105 250 840 250.895 840 252Z" fill="#C94057" fill-opacity="0.6"/>
<path d="M840 302C840 303.105 839.105 304 838 304C836.895 304 836 303.105 836 302C836 300.895 836.895 300 838 300C839.105 300 840 300.895 840 302Z" fill="#C94057" fill-opacity="0.6"/>
<path d="M840 352C840 353.105 839.105 354 838 354C836.895 354 836 353.105 836 352C836 350.895 836.895 350 838 350C839.105 350 840 350.895 840 352Z" fill="#C94057" fill-opacity="0.6"/>
<path d="M840 402C840 403.105 839.105 404 838 404C836.895 404 836 403.105 836 402C836 400.895 836.895 400 838 400C839.105 400 840 400.895 840 402Z" fill="#C94057" fill-opacity="0.6"/>
<path d="M840 452C840 453.105 839.105 454 838 454C836.895 454 836 453.105 836 452C836 450.895 836.895 450 838 450C839.105 450 840 450.895 840 452Z" fill="#C94057" fill-opacity="0.6"/>
<path d="M887 2C887 3.10457 886.105 4 885 4C883.895 4 883 3.10457 883 2C883 0.895431 883.895 0 885 0C886.105 0 887 0.895431 887 2Z" fill="#C94057" fill-opacity="0.6"/>
<path d="M887 52C887 53.1046 886.105 54 885 54C883.895 54 883 53.1046 883 52C883 50.8954 883.895 50 885 50C886.105 50 887 50.8954 887 52Z" fill="#C94057" fill-opacity="0.6"/>
<path d="M887 102C887 103.105 886.105 104 885 104C883.895 104 883 103.105 883 102C883 100.895 883.895 100 885 100C886.105 100 887 100.895 887 102Z" fill="#C94057" fill-opacity="0.6"/>
<path d="M887 152C887 153.105 886.105 154 885 154C883.895 154 883 153.105 883 152C883 150.895 883.895 150 885 150C886.105 150 887 150.895 887 152Z" fill="#C94057" fill-opacity="0.6"/>
<path d="M887 202C887 203.105 886.105 204 885 204C883.895 204 883 203.105 883 202C883 200.895 883.895 200 885 200C886.105 200 887 200.895 887 202Z" fill="#C94057" fill-opacity="0.6"/>
<path d="M887 252C887 253.105 886.105 254 885 254C883.895 254 883 253.105 883 252C883 250.895 883.895 250 885 250C886.105 250 887 250.895 887 252Z" fill="#C94057" fill-opacity="0.6"/>
<path d="M887 302C887 303.105 886.105 304 885 304C883.895 304 883 303.105 883 302C883 300.895 883.895 300 885 300C886.105 300 887 300.895 887 302Z" fill="#C94057" fill-opacity="0.6"/>
<path d="M887 352C887 353.105 886.105 354 885 354C883.895 354 883 353.105 883 352C883 350.895 883.895 350 885 350C886.105 350 887 350.895 887 352Z" fill="#C94057" fill-opacity="0.6"/>
<path d="M887 402C887 403.105 886.105 404 885 404C883.895 404 883 403.105 883 402C883 400.895 883.895 400 885 400C886.105 400 887 400.895 887 402Z" fill="#C94057" fill-opacity="0.6"/>
<path d="M887 452C887 453.105 886.105 454 885 454C883.895 454 883 453.105 883 452C883 450.895 883.895 450 885 450C886.105 450 887 450.895 887 452Z" fill="#C94057" fill-opacity="0.6"/>
<path d="M934 2C934 3.10457 933.105 4 932 4C930.895 4 930 3.10457 930 2C930 0.895431 930.895 0 932 0C933.105 0 934 0.895431 934 2Z" fill="#C94057" fill-opacity="0.6"/>
<path d="M934 52C934 53.1046 933.105 54 932 54C930.895 54 930 53.1046 930 52C930 50.8954 930.895 50 932 50C933.105 50 934 50.8954 934 52Z" fill="#C94057" fill-opacity="0.6"/>
<path d="M934 102C934 103.105 933.105 104 932 104C930.895 104 930 103.105 930 102C930 100.895 930.895 100 932 100C933.105 100 934 100.895 934 102Z" fill="#C94057" fill-opacity="0.6"/>
<path d="M934 152C934 153.105 933.105 154 932 154C930.895 154 930 153.105 930 152C930 150.895 930.895 150 932 150C933.105 150 934 150.895 934 152Z" fill="#C94057" fill-opacity="0.6"/>
<path d="M934 202C934 203.105 933.105 204 932 204C930.895 204 930 203.105 930 202C930 200.895 930.895 200 932 200C933.105 200 934 200.895 934 202Z" fill="#C94057" fill-opacity="0.6"/>
<path d="M934 252C934 253.105 933.105 254 932 254C930.895 254 930 253.105 930 252C930 250.895 930.895 250 932 250C933.105 250 934 250.895 934 252Z" fill="#C94057" fill-opacity="0.6"/>
<path d="M934 302C934 303.105 933.105 304 932 304C930.895 304 930 303.105 930 302C930 300.895 930.895 300 932 300C933.105 300 934 300.895 934 302Z" fill="#C94057" fill-opacity="0.6"/>
<path d="M934 352C934 353.105 933.105 354 932 354C930.895 354 930 353.105 930 352C930 350.895 930.895 350 932 350C933.105 350 934 350.895 934 352Z" fill="#C94057" fill-opacity="0.6"/>
<path d="M934 402C934 403.105 933.105 404 932 404C930.895 404 930 403.105 930 402C930 400.895 930.895 400 932 400C933.105 400 934 400.895 934 402Z" fill="#C94057" fill-opacity="0.6"/>
<path d="M934 452C934 453.105 933.105 454 932 454C930.895 454 930 453.105 930 452C930 450.895 930.895 450 932 450C933.105 450 934 450.895 934 452Z" fill="#C94057" fill-opacity="0.6"/>
<path d="M980 2C980 3.10457 979.105 4 978 4C976.895 4 976 3.10457 976 2C976 0.895431 976.895 0 978 0C979.105 0 980 0.895431 980 2Z" fill="#C94057" fill-opacity="0.6"/>
<path d="M980 52C980 53.1046 979.105 54 978 54C976.895 54 976 53.1046 976 52C976 50.8954 976.895 50 978 50C979.105 50 980 50.8954 980 52Z" fill="#C94057" fill-opacity="0.6"/>
<path d="M980 102C980 103.105 979.105 104 978 104C976.895 104 976 103.105 976 102C976 100.895 976.895 100 978 100C979.105 100 980 100.895 980 102Z" fill="#C94057" fill-opacity="0.6"/>
<path d="M980 152C980 153.105 979.105 154 978 154C976.895 154 976 153.105 976 152C976 150.895 976.895 150 978 150C979.105 150 980 150.895 980 152Z" fill="#C94057" fill-opacity="0.6"/>
<path d="M980 202C980 203.105 979.105 204 978 204C976.895 204 976 203.105 976 202C976 200.895 976.895 200 978 200C979.105 200 980 200.895 980 202Z" fill="#C94057" fill-opacity="0.6"/>
<path d="M980 252C980 253.105 979.105 254 978 254C976.895 254 976 253.105 976 252C976 250.895 976.895 250 978 250C979.105 250 980 250.895 980 252Z" fill="#C94057" fill-opacity="0.6"/>
<path d="M980 302C980 303.105 979.105 304 978 304C976.895 304 976 303.105 976 302C976 300.895 976.895 300 978 300C979.105 300 980 300.895 980 302Z" fill="#C94057" fill-opacity="0.6"/>
<path d="M980 352C980 353.105 979.105 354 978 354C976.895 354 976 353.105 976 352C976 350.895 976.895 350 978 350C979.105 350 980 350.895 980 352Z" fill="#C94057" fill-opacity="0.6"/>
<path d="M980 402C980 403.105 979.105 404 978 404C976.895 404 976 403.105 976 402C976 400.895 976.895 400 978 400C979.105 400 980 400.895 980 402Z" fill="#C94057" fill-opacity="0.6"/>
<path d="M980 452C980 453.105 979.105 454 978 454C976.895 454 976 453.105 976 452C976 450.895 976.895 450 978 450C979.105 450 980 450.895 980 452Z" fill="#C94057" fill-opacity="0.6"/>
</svg>
